<mxfile host="app.diagrams.net" modified="2021-09-05T19:24:16.057Z" agent="5.0 (Windows NT 10.0; Win64; x64) AppleWebKit/537.36 (KHTML, like Gecko) Chrome/93.0.4577.63 Safari/537.36" etag="aSkDBQngMdvunVitxXDo" version="15.0.6" type="github">
  <diagram id="kgpKYQtTHZ0yAKxKKP6v" name="Page-1">
    <mxGraphModel dx="1014" dy="529" grid="1" gridSize="10" guides="1" tooltips="1" connect="1" arrows="1" fold="1" page="1" pageScale="1" pageWidth="850" pageHeight="1100" math="0" shadow="0">
      <root>
        <mxCell id="0" />
        <mxCell id="1" parent="0" />
        <mxCell id="uxp9zhx9pDXaW7esicIj-1" value="INÍCIO" style="ellipse;whiteSpace=wrap;html=1;" vertex="1" parent="1">
          <mxGeometry x="30" width="120" height="80" as="geometry" />
        </mxCell>
        <mxCell id="uxp9zhx9pDXaW7esicIj-3" value="&lt;span style=&quot;font-size: 10px&quot;&gt;ESCOLHA A DATA DE EVENTO&lt;/span&gt;" style="shape=display;whiteSpace=wrap;html=1;" vertex="1" parent="1">
          <mxGeometry x="25" y="120" width="130" height="50" as="geometry" />
        </mxCell>
        <mxCell id="uxp9zhx9pDXaW7esicIj-4" value="&amp;nbsp;DATA" style="shape=manualInput;whiteSpace=wrap;html=1;" vertex="1" parent="1">
          <mxGeometry x="32.5" y="210" width="110" height="70" as="geometry" />
        </mxCell>
        <mxCell id="uxp9zhx9pDXaW7esicIj-5" value="DATA EVENTO &amp;gt; ATUAL" style="rhombus;whiteSpace=wrap;html=1;" vertex="1" parent="1">
          <mxGeometry x="25" y="310.75" width="125" height="125" as="geometry" />
        </mxCell>
        <mxCell id="uxp9zhx9pDXaW7esicIj-8" value="REALIZAR CADASTRO&lt;br&gt;E INCREMENTAR NÚMERO DE PARTICIPANTES" style="rounded=0;whiteSpace=wrap;html=1;" vertex="1" parent="1">
          <mxGeometry x="471.11" y="1186.38" width="135" height="67.5" as="geometry" />
        </mxCell>
        <mxCell id="uxp9zhx9pDXaW7esicIj-9" value="IDADE &amp;gt;= 18" style="rhombus;whiteSpace=wrap;html=1;" vertex="1" parent="1">
          <mxGeometry x="25" y="720" width="124.5" height="124.5" as="geometry" />
        </mxCell>
        <mxCell id="uxp9zhx9pDXaW7esicIj-12" value="&lt;font style=&quot;font-size: 10px&quot;&gt;NÃO FOI POSSIVEL REALIZAR O CADASTRO IDADE INFERIOR A 18 ANOS!&lt;/font&gt;" style="shape=display;whiteSpace=wrap;html=1;" vertex="1" parent="1">
          <mxGeometry x="270" y="747.25" width="190.72" height="70" as="geometry" />
        </mxCell>
        <mxCell id="uxp9zhx9pDXaW7esicIj-13" value="EXPIROU O PERÍODO DE CADASTRO!" style="shape=display;whiteSpace=wrap;html=1;" vertex="1" parent="1">
          <mxGeometry x="214.83" y="341.5" width="206.38" height="63.5" as="geometry" />
        </mxCell>
        <mxCell id="uxp9zhx9pDXaW7esicIj-15" value="NÚMERO DE PARTICIPANTES &amp;lt; 100" style="rhombus;whiteSpace=wrap;html=1;" vertex="1" parent="1">
          <mxGeometry x="23.63" y="986.38" width="127.25" height="127.25" as="geometry" />
        </mxCell>
        <mxCell id="uxp9zhx9pDXaW7esicIj-16" value="&lt;font style=&quot;font-size: 11px&quot;&gt;CADASTRO REALIZADO COM SUCESSO!&lt;/font&gt;" style="shape=display;whiteSpace=wrap;html=1;" vertex="1" parent="1">
          <mxGeometry x="697.42" y="1186.38" width="152.5" height="60" as="geometry" />
        </mxCell>
        <mxCell id="uxp9zhx9pDXaW7esicIj-17" value="&lt;font style=&quot;font-size: 10px&quot;&gt;INFORME SUA DATA DE NASCIMENTO&lt;/font&gt;" style="shape=display;whiteSpace=wrap;html=1;" vertex="1" parent="1">
          <mxGeometry x="19" y="470" width="137" height="67.5" as="geometry" />
        </mxCell>
        <mxCell id="uxp9zhx9pDXaW7esicIj-18" value="NASCIMENTO" style="shape=manualInput;whiteSpace=wrap;html=1;" vertex="1" parent="1">
          <mxGeometry x="27.5" y="590" width="120" height="80" as="geometry" />
        </mxCell>
        <mxCell id="uxp9zhx9pDXaW7esicIj-19" value="NÚMERO DE PARTICIPANTES E PALESTRANTES" style="shape=document;whiteSpace=wrap;html=1;boundedLbl=1;" vertex="1" parent="1">
          <mxGeometry x="248.42" y="1186.38" width="120" height="80" as="geometry" />
        </mxCell>
        <mxCell id="uxp9zhx9pDXaW7esicIj-21" value="&lt;span&gt;NÚMERO DE PARTICIPANTES E PALESTRANTES&lt;/span&gt;" style="shape=document;whiteSpace=wrap;html=1;boundedLbl=1;" vertex="1" parent="1">
          <mxGeometry x="246.42" y="1010" width="120" height="80" as="geometry" />
        </mxCell>
        <mxCell id="uxp9zhx9pDXaW7esicIj-22" value="&lt;font style=&quot;font-size: 10px&quot;&gt;NÃO FOI POSSÍVEL REALIZAR O CADASTRO. LIMITE DE PARTICIPANTES ATINGIDO.&lt;/font&gt;" style="shape=display;whiteSpace=wrap;html=1;size=0.20689655172413793;" vertex="1" parent="1">
          <mxGeometry x="471.11" y="1020" width="145" height="60" as="geometry" />
        </mxCell>
        <mxCell id="uxp9zhx9pDXaW7esicIj-24" value="FIM" style="ellipse;whiteSpace=wrap;html=1;" vertex="1" parent="1">
          <mxGeometry x="714.25" y="737.25" width="120" height="80" as="geometry" />
        </mxCell>
        <mxCell id="uxp9zhx9pDXaW7esicIj-28" value="" style="endArrow=classic;html=1;" edge="1" parent="1" source="uxp9zhx9pDXaW7esicIj-22">
          <mxGeometry width="50" height="50" relative="1" as="geometry">
            <mxPoint x="620" y="940" as="sourcePoint" />
            <mxPoint x="750" y="820" as="targetPoint" />
          </mxGeometry>
        </mxCell>
        <mxCell id="uxp9zhx9pDXaW7esicIj-29" value="" style="endArrow=classic;html=1;entryX=0;entryY=0.5;entryDx=0;entryDy=0;entryPerimeter=0;" edge="1" parent="1" source="uxp9zhx9pDXaW7esicIj-21" target="uxp9zhx9pDXaW7esicIj-22">
          <mxGeometry width="50" height="50" relative="1" as="geometry">
            <mxPoint x="370.42" y="1039.38" as="sourcePoint" />
            <mxPoint x="470.42" y="1046.38" as="targetPoint" />
          </mxGeometry>
        </mxCell>
        <mxCell id="uxp9zhx9pDXaW7esicIj-30" value="" style="endArrow=classic;html=1;" edge="1" parent="1" source="uxp9zhx9pDXaW7esicIj-12">
          <mxGeometry width="50" height="50" relative="1" as="geometry">
            <mxPoint x="470" y="782" as="sourcePoint" />
            <mxPoint x="710" y="782" as="targetPoint" />
          </mxGeometry>
        </mxCell>
        <mxCell id="uxp9zhx9pDXaW7esicIj-31" value="" style="endArrow=classic;html=1;entryX=0;entryY=0.5;entryDx=0;entryDy=0;" edge="1" parent="1" target="uxp9zhx9pDXaW7esicIj-21">
          <mxGeometry width="50" height="50" relative="1" as="geometry">
            <mxPoint x="151.28799618921644" y="1050.0029961892164" as="sourcePoint" />
            <mxPoint x="240.42" y="1049.38" as="targetPoint" />
          </mxGeometry>
        </mxCell>
        <mxCell id="uxp9zhx9pDXaW7esicIj-32" value="" style="endArrow=classic;html=1;entryX=0;entryY=0.5;entryDx=0;entryDy=0;" edge="1" parent="1" target="uxp9zhx9pDXaW7esicIj-19">
          <mxGeometry width="50" height="50" relative="1" as="geometry">
            <mxPoint x="118.00355448936618" y="1083.2914455106338" as="sourcePoint" />
            <mxPoint x="230.42" y="1206.38" as="targetPoint" />
          </mxGeometry>
        </mxCell>
        <mxCell id="uxp9zhx9pDXaW7esicIj-33" value="" style="endArrow=classic;html=1;entryX=-0.004;entryY=0.599;entryDx=0;entryDy=0;entryPerimeter=0;" edge="1" parent="1" source="uxp9zhx9pDXaW7esicIj-19" target="uxp9zhx9pDXaW7esicIj-8">
          <mxGeometry width="50" height="50" relative="1" as="geometry">
            <mxPoint x="370.42" y="1215.38" as="sourcePoint" />
            <mxPoint x="480.42" y="1215.38" as="targetPoint" />
          </mxGeometry>
        </mxCell>
        <mxCell id="uxp9zhx9pDXaW7esicIj-35" value="" style="endArrow=classic;html=1;entryX=0;entryY=0.5;entryDx=0;entryDy=0;entryPerimeter=0;exitX=1.002;exitY=0.454;exitDx=0;exitDy=0;exitPerimeter=0;" edge="1" parent="1" source="uxp9zhx9pDXaW7esicIj-8" target="uxp9zhx9pDXaW7esicIj-16">
          <mxGeometry width="50" height="50" relative="1" as="geometry">
            <mxPoint x="608.4199999999997" y="1215.79" as="sourcePoint" />
            <mxPoint x="698.4199999999997" y="1215.79" as="targetPoint" />
          </mxGeometry>
        </mxCell>
        <mxCell id="uxp9zhx9pDXaW7esicIj-37" value="" style="endArrow=classic;html=1;entryX=0.5;entryY=1;entryDx=0;entryDy=0;" edge="1" parent="1" source="uxp9zhx9pDXaW7esicIj-16" target="uxp9zhx9pDXaW7esicIj-24">
          <mxGeometry width="50" height="50" relative="1" as="geometry">
            <mxPoint x="770" y="1100" as="sourcePoint" />
            <mxPoint x="770" y="820" as="targetPoint" />
          </mxGeometry>
        </mxCell>
        <mxCell id="uxp9zhx9pDXaW7esicIj-38" value="" style="endArrow=classic;html=1;exitX=1;exitY=0.835;exitDx=0;exitDy=0;exitPerimeter=0;" edge="1" parent="1" source="uxp9zhx9pDXaW7esicIj-13" target="uxp9zhx9pDXaW7esicIj-24">
          <mxGeometry width="50" height="50" relative="1" as="geometry">
            <mxPoint x="400" y="640" as="sourcePoint" />
            <mxPoint x="730" y="740" as="targetPoint" />
          </mxGeometry>
        </mxCell>
        <mxCell id="uxp9zhx9pDXaW7esicIj-39" value="" style="endArrow=classic;html=1;entryX=0;entryY=0.5;entryDx=0;entryDy=0;entryPerimeter=0;exitX=1;exitY=0.5;exitDx=0;exitDy=0;" edge="1" parent="1" source="uxp9zhx9pDXaW7esicIj-9" target="uxp9zhx9pDXaW7esicIj-12">
          <mxGeometry width="50" height="50" relative="1" as="geometry">
            <mxPoint x="400" y="750" as="sourcePoint" />
            <mxPoint x="450" y="700" as="targetPoint" />
          </mxGeometry>
        </mxCell>
        <mxCell id="uxp9zhx9pDXaW7esicIj-42" value="" style="endArrow=classic;html=1;entryX=0.478;entryY=0.008;entryDx=0;entryDy=0;entryPerimeter=0;" edge="1" parent="1" target="uxp9zhx9pDXaW7esicIj-3">
          <mxGeometry width="50" height="50" relative="1" as="geometry">
            <mxPoint x="87" y="80" as="sourcePoint" />
            <mxPoint x="490" y="90" as="targetPoint" />
          </mxGeometry>
        </mxCell>
        <mxCell id="uxp9zhx9pDXaW7esicIj-43" value="" style="endArrow=classic;html=1;entryX=0.495;entryY=0.214;entryDx=0;entryDy=0;entryPerimeter=0;" edge="1" parent="1" target="uxp9zhx9pDXaW7esicIj-4">
          <mxGeometry width="50" height="50" relative="1" as="geometry">
            <mxPoint x="87.21000000000001" y="169.6" as="sourcePoint" />
            <mxPoint x="87.35" y="210.00000000000003" as="targetPoint" />
          </mxGeometry>
        </mxCell>
        <mxCell id="uxp9zhx9pDXaW7esicIj-44" value="" style="endArrow=classic;html=1;exitX=0.5;exitY=1;exitDx=0;exitDy=0;entryX=0.5;entryY=0;entryDx=0;entryDy=0;" edge="1" parent="1" source="uxp9zhx9pDXaW7esicIj-4" target="uxp9zhx9pDXaW7esicIj-5">
          <mxGeometry width="50" height="50" relative="1" as="geometry">
            <mxPoint x="120" y="360" as="sourcePoint" />
            <mxPoint x="170" y="310" as="targetPoint" />
          </mxGeometry>
        </mxCell>
        <mxCell id="uxp9zhx9pDXaW7esicIj-45" value="" style="endArrow=classic;html=1;entryX=0;entryY=0.5;entryDx=0;entryDy=0;entryPerimeter=0;exitX=1;exitY=0.5;exitDx=0;exitDy=0;" edge="1" parent="1" source="uxp9zhx9pDXaW7esicIj-5" target="uxp9zhx9pDXaW7esicIj-13">
          <mxGeometry width="50" height="50" relative="1" as="geometry">
            <mxPoint x="100" y="350" as="sourcePoint" />
            <mxPoint x="150" y="300" as="targetPoint" />
          </mxGeometry>
        </mxCell>
        <mxCell id="uxp9zhx9pDXaW7esicIj-46" value="" style="endArrow=classic;html=1;entryX=0.501;entryY=0.205;entryDx=0;entryDy=0;entryPerimeter=0;exitX=0;exitY=0;exitDx=68.75;exitDy=67.5;exitPerimeter=0;" edge="1" parent="1" source="uxp9zhx9pDXaW7esicIj-17" target="uxp9zhx9pDXaW7esicIj-18">
          <mxGeometry width="50" height="50" relative="1" as="geometry">
            <mxPoint x="140" y="610" as="sourcePoint" />
            <mxPoint x="190" y="560" as="targetPoint" />
          </mxGeometry>
        </mxCell>
        <mxCell id="uxp9zhx9pDXaW7esicIj-47" value="" style="endArrow=classic;html=1;entryX=0;entryY=0;entryDx=68.75;entryDy=0;entryPerimeter=0;exitX=0.5;exitY=1;exitDx=0;exitDy=0;" edge="1" parent="1" source="uxp9zhx9pDXaW7esicIj-5" target="uxp9zhx9pDXaW7esicIj-17">
          <mxGeometry width="50" height="50" relative="1" as="geometry">
            <mxPoint x="140" y="610" as="sourcePoint" />
            <mxPoint x="190" y="560" as="targetPoint" />
          </mxGeometry>
        </mxCell>
        <mxCell id="uxp9zhx9pDXaW7esicIj-48" value="" style="endArrow=classic;html=1;entryX=0.5;entryY=0;entryDx=0;entryDy=0;exitX=0.5;exitY=1;exitDx=0;exitDy=0;" edge="1" parent="1" source="uxp9zhx9pDXaW7esicIj-18" target="uxp9zhx9pDXaW7esicIj-9">
          <mxGeometry width="50" height="50" relative="1" as="geometry">
            <mxPoint x="100" y="730" as="sourcePoint" />
            <mxPoint x="150" y="680" as="targetPoint" />
          </mxGeometry>
        </mxCell>
        <mxCell id="uxp9zhx9pDXaW7esicIj-49" value="" style="endArrow=classic;html=1;exitX=0.5;exitY=1;exitDx=0;exitDy=0;" edge="1" parent="1" source="uxp9zhx9pDXaW7esicIj-9">
          <mxGeometry width="50" height="50" relative="1" as="geometry">
            <mxPoint x="-100" y="800" as="sourcePoint" />
            <mxPoint x="87" y="890" as="targetPoint" />
          </mxGeometry>
        </mxCell>
        <mxCell id="uxp9zhx9pDXaW7esicIj-50" value="NÃO" style="text;html=1;strokeColor=none;fillColor=none;align=center;verticalAlign=middle;whiteSpace=wrap;rounded=0;" vertex="1" parent="1">
          <mxGeometry x="155" y="341.5" width="40" height="20" as="geometry" />
        </mxCell>
        <mxCell id="uxp9zhx9pDXaW7esicIj-51" value="SIM" style="text;html=1;strokeColor=none;fillColor=none;align=center;verticalAlign=middle;whiteSpace=wrap;rounded=0;" vertex="1" parent="1">
          <mxGeometry x="90" y="440" width="40" height="20" as="geometry" />
        </mxCell>
        <mxCell id="uxp9zhx9pDXaW7esicIj-52" value="NÃO" style="text;html=1;strokeColor=none;fillColor=none;align=center;verticalAlign=middle;whiteSpace=wrap;rounded=0;" vertex="1" parent="1">
          <mxGeometry x="190" y="760" width="40" height="20" as="geometry" />
        </mxCell>
        <mxCell id="uxp9zhx9pDXaW7esicIj-55" value="NÃO" style="text;html=1;strokeColor=none;fillColor=none;align=center;verticalAlign=middle;whiteSpace=wrap;rounded=0;" vertex="1" parent="1">
          <mxGeometry x="175.24999999999997" y="1026.38" width="40" height="20" as="geometry" />
        </mxCell>
        <mxCell id="uxp9zhx9pDXaW7esicIj-56" value="SIM" style="text;html=1;strokeColor=none;fillColor=none;align=center;verticalAlign=middle;whiteSpace=wrap;rounded=0;" vertex="1" parent="1">
          <mxGeometry x="90" y="860" width="40" height="20" as="geometry" />
        </mxCell>
        <mxCell id="uxp9zhx9pDXaW7esicIj-57" value="SIM" style="text;html=1;strokeColor=none;fillColor=none;align=center;verticalAlign=middle;whiteSpace=wrap;rounded=0;" vertex="1" parent="1">
          <mxGeometry x="170.42" y="1126.38" width="40" height="20" as="geometry" />
        </mxCell>
        <mxCell id="uxp9zhx9pDXaW7esicIj-58" value="PARTICIPANTES" style="shape=parallelogram;perimeter=parallelogramPerimeter;whiteSpace=wrap;html=1;fixedSize=1;" vertex="1" parent="1">
          <mxGeometry x="27.25" y="890" width="120" height="60" as="geometry" />
        </mxCell>
        <mxCell id="uxp9zhx9pDXaW7esicIj-59" value="" style="endArrow=classic;html=1;entryX=0.5;entryY=0;entryDx=0;entryDy=0;exitX=0.5;exitY=1;exitDx=0;exitDy=0;" edge="1" parent="1" source="uxp9zhx9pDXaW7esicIj-58" target="uxp9zhx9pDXaW7esicIj-15">
          <mxGeometry width="50" height="50" relative="1" as="geometry">
            <mxPoint x="200" y="1010" as="sourcePoint" />
            <mxPoint x="250" y="960" as="targetPoint" />
          </mxGeometry>
        </mxCell>
      </root>
    </mxGraphModel>
  </diagram>
</mxfile>
